<mxfile host="app.diagrams.net" modified="2023-11-06T06:27:31.657Z" agent="Mozilla/5.0 (Windows NT 10.0; Win64; x64) AppleWebKit/537.36 (KHTML, like Gecko) Chrome/119.0.0.0 Safari/537.36" etag="BAYyeCgrgXjP8MC5Rds6" version="22.0.8" type="github">
  <diagram name="第 1 页" id="cRPEl-Kgu4YiBPCB8Y4n">
    <mxGraphModel dx="1912" dy="1053" grid="1" gridSize="10" guides="1" tooltips="1" connect="1" arrows="1" fold="1" page="1" pageScale="1" pageWidth="1600" pageHeight="900" math="0" shadow="0">
      <root>
        <mxCell id="0" />
        <mxCell id="1" parent="0" />
        <mxCell id="qH5N2jIMNF-lpWaPt8uT-1" value="" style="shape=image;verticalLabelPosition=bottom;labelBackgroundColor=default;verticalAlign=top;aspect=fixed;imageAspect=0;image=data:image/png,iVBORw0KGgoAAAANSUhEUgAABcsAAABPCAIAAAC77wroAAAABGdBTUEAALGPC/xhBQAAAAlwSFlzAAAOxAAADsQBlSsOGwAAKuJJREFUeF7tnftzFVW69/0Pzh/gKzXv+WEK6qWsg2WVKFg44zBneH1l1OMo5KByHBxvZxRExNGjlooywCgIAoriZQZFwYOIV1BBbgHCPYjIRTgSJBACBkIYciG+351v88zK6kv2JdnZ2fv7qad2da/1rKdXr17d6fXN6u4LfhJCCCGEEEIIIYQQ2XKyDSksQgghhBBCCCGEENkjhUUIIYQQQgghhBAiV6SwCCGEEEIIIYQQQuSKFBYhhBBCCCGEEEKIXJHCIoQQQgghhBBCCJErUliEEEIIIYQQQgghckUKixBCCCGEEEIIIUSuSGERQgghhBBCCCGEyBUpLEIIIYQQQgghhBC5IoVFCCGEEEIIIYQQIleksAghhBBCCCGEEELkihQWIYQQQgghhBBCiFyRwiKEEEIIIYQQQgiRK1JYhBBCCCGEEEIIIXJFCosQQgghhBBCCCFErkhhEUIIIYQQQgghhMgVKSxCCCGEEEIIIYQQuSKFRQghhBBCCCGEECJXpLAIIYQQQgghhBBC5IoUFiGEEEIIIUTR0tTU3HDm7Mn6hhN19bUnTsKOHa+TyQrN2DnRS9FX0WPRb4MeLHoUUliEEEIIIYQQxUZzc0v96TPSU2Q919B70YfRk4M+LXoCUliEEEIIIYQQxQNGpCfrG7zBqkzWcw39WTpLT0EKixBCCCGEEKJIqG84441OZbLiMPTtoJeLAkYKixBCCCGEEKLH09LS8uPJem9QKpMVk6GHo58HPb5UOVhVtWDBwmCl8JDCIoQQQgghhOjZNDU165UrslIw9PNSfgnuggUL/1ev/w0rL18XJBUYUliEEEIIIYQQPRjJK7KSslIWWZ6fOo0KCxaCpAJDCosQQgghhBCip9LS0iJ5pRTsh+pjW3fsWlW+afnqDd1uqAYqgyp5lTTLurYdRqahz5fm40JSWIQQQgghhBCiq9C7V0rBfqg+tmb95p2791UfrfWyusVQDVQGVYqUQnKpbXJk19Dzg3OglJDCIoQQQgghhBBdgr4cVCK2dceunbv3eYndbqgSKuYlwnKvbVxkz4r160LPT50W9y7b8vJ1VFji3sOCgt0rvvRUhaWhoeGLL5fjN1jvJKoOHfrhh8Otra3BOq7a9acrKjbi+MH27N0bpGZFU1PTwYMHP/3ss9Vr1gZJaVBXVzfuoYfLRtwKq6zcEaS2x/VZunRZkCqEEEIIIUTx0tzc4g04ZcVqq8o3FcjsFddQJVTMS4TlXtu4yGHDWRCcD8WCvcs2TiiBQ5z+MmbsOJaNc8gDPU9haW1t3b698robbkTDzZw1u7k5eMdPTU3NK6/ORUqHtnjxkqamJpZyaWxsfPyJJxH2hhtvmv/Ou5Rv9n333a//9f/yOE17YTo9s6Cycscll17GODjw6WtDJ06c+PdbbmPBio2bmIhG2LN3ryk+rs+i9xczEbtTUbGx00UoIYQQQgghCoGT9Q3eaDMd27K1ctjwsot69aINGDBwxouzkOi5ZWpVh2vWrN+yaetOLx22//sfVq7dWPnNHi89zhiqfNM2L72UbfnqDV5KgVhkxTqltmkGwVkQnA/Fgs1SgWU0GwXOVrBoFZa///3vD//pUdvPXOzfb7ntxIkTiNnY2PjU088wsXefvu8v/oBTTlwpJNlQJVSsrYLt2L17z1W/HEyfx594EhtCYmcpLHV1daPuuJNxLrn0srjZKGHCCsuBA//zwIPjsO933X0vwno+prCsWVuODV1z7W8//uRT7ksJgkOGw4eDGKyfhz0zMqtHcPLsTwPm/XTzB8Gqy/rDP/3TtJ/e2x2sCiGEEEIUJdlNYHlo/MMXxDDjxVmec0bmKixcxgiZtqVy18q1G/nLlBVrK77de8At7poUlrCh0byUArHIinVKbdMPUnzTWEwr6X/FlUFSGrAIbMzYcUFSd9DzFBZQc+zY7aP+wPT+lw9ct249EnNUWFpbW+fMeZUOvfv0tQd5OkthcePDsExhqEPCCsv+/QeuHXo9U956ez7ihBWWurq6u+6+lykPjf9Tac5k4bGLPGpoSWur9LF2zrRgp5OLwgKHIQtTEeJ4cu1PvWb/dCiTN2ehyAWTUr+5w11DNLPI3SxY0N9yuVAQdl33SsUea7PY0ocX4ciLXhzo3nG7wGhZVKPb2ffd/rLbRuE3WM+WqTNmXfjPfSo2beYqGmT8o0/A0m/eDkElB19znW0iDji4Nem5TJ0+ExasZEuq0YYMHf/I43YgKjZuvvBnP8cvV9PnxIkfy2693Q0lhChY6k9n/AaWAQMGBmrKBRcMG1720PiHYUi8qFcvJmLVK5K+hRUWk0i8OSxYMIWFWRhLp2lwRhHGKSnDvnspBWKRFeuU2qYfBOdCcFYUERRZwlNRDlZVIQvp4fewIL3/FVfiN1jvJnqkwgL27N1L4eORRx+rrT2OFFcKGfrbG/hSEtcGXXU1cyMHG9XV1TfdXEYH9ymeBIVl3br1Tz71NLcOTp8+/de/zfOeSHLNbYrrbrjxhekzPAezzVu2MCYIKyytra1vvT3f4qCTeQqL69D/8oHbt1cyVEkR1/fQUIcPV8d1S6+beaBt6Zb7EDpHclFYOlRDulRhQcVMOok0VB67kH/ckygL47mJXjfnlbm2ypTka2CkWsee5mYhIFKykDZYAVj4ohcHtx4uYvuSUbTcWbT4wwv/uU92ZtrHvjbZwpVCqFDEWdnIOzDSpqeRGnuPvMPNQrRkhYXb9YJ7hh0MvNtgkcJXWKhEXPizn2dn1D7QbnNefd1WmTL+kcddT88Wvb+Eni5I9LLyoLB0WNWwDR4yFMc3KC+EyJlMv9Bss1cGDBjoPRO0eMlHOYosK9ZWYDxstnbD1jQVlkjTHJawpS835NkiK9YptU0/CM6F4Kwoamxii1kh6ClhulZhaWlp+XrnTr4mNn1buXLV788/UHPt0OuXff4FEjdv2dLY2IgbGgyEyF//Om/Bwvdqa49j+fTp064UEjkOwaiYueHhgStJ9O7TFxUIMuIVlm+/3c2JJNfdcGPljtQjP6hGLiM01zDCMb3mueen2bNL//XYE0hBOmplelBqQmNtrauwmPwEm/3Sy6X5pXS0g8klOHBul0AW2gdtiFx0Bvp0CIe4CMXxZxZj3U4kx6eEKIjAJzxhJMGSRZlkhw6h8pJLhHzCkz1SaEAK0u1awdVIT15b0J2C9fOwiPVewu7n9TpEmPPKXC7TIQsLVwAwmldt7BRPnGC9IKEcE6k7IHHwNdftOz++TVAops6YFamwsIgriKB9IhWWOXPfsA0ZSEEFEDxYd0CiBaEbK8b42GimFln/biRBtkjt4yOP2zQWrkZ6plpmyNCwwsIiiO/ucqTCgghzXn09WIkhU4Ul/Qk4qHneFBZeXtwznead1AcPHuSdzKg77uRDx5E0NzfjNmzM2HH8T1X/ywfefc9/rljxVck+gCwKhKamZm+QmWxbtlZSQBkwYKCXZWYiS3bvZAnPYcEImcbng7Z9vdsSpbBkamg0L6XrzD18yUcKFlmxTqltRkFwRgTnRjFysKrqdzcNtz9nnvW/4ko4BK4FQNcqLNmBP/+4CWB7ecMMDm7Dhlt/934Cw4Pw53Xgw9zwaAeHhK/OhY0eM/ZU/T/+fe+GtVGTySs0HO/Dh6s56LLEXAy7mRCNbTL/nXe5+qtf/2bDhgpzfnv+O488+hiXcc9kU2xKClcEwbFGB7BVHlCOKtGME56Z6PWxSHg42HMAFrp3qGnKCCebdDgxxFMuUAQF4yaqwDn/TwkVjcLiwd4S6el2RReqG146E9mHCevgJYZJqICHBUzT0jlx8k+CwuKRqcKCBhz/6BNeOhM9hYV18BJB8hbNf18PmcOSEZnKFpGeqZaJUlgopnjpYYWFdQjLLh4lpbDYjUTvPn3jriRVhw7ZW+Q8QzpyAz8h8k7DmbPeCDPZbAJLgnqyeMlH9MnuhSxhhSWdOSzw50g+feMmSs2w415KmoZ2Rmtb42dkHc42gkVWLK62XkCswjNOSstol3FGBOdGMeLKK5y3MmbsOC8xcC0AilZhcUcLHKvEKSwtLS24jDILtvC9/w4y2nDDUmHx5BV7EYyr6QwrG4F0OvS9uN9NN5cx3bPfDPl/bhyUYvrSpcsSRjtsk6NHj8LzgQfH7dm79/jxdjtbW3v82YmTrhz0i+ShV7HCpsO+49hNeGYijzWahYcPC24HYGdjD4mDAdnsborXkfIDtZWxy1O/sF6zU79INLw5LFwNKxdwGLJQCkuWhDsAU+wktZORHcw8kWIdKVJhob/b2Qj6MwLaGU03NyUOrwIJcBci6xMu7u5IQRFWWJjiGlUSV6FIDapH3mGTUyIVFvqbD0GzeAoL3cLyCkBYdxKNSwkqLEy5sP1DNIveX5JqUkdhQQrceCxSLRNSWOhvPoansNDNTYkjXNU4LGb6lmeFBYaFIClEQ0MDbk9xqzD+4UdwMZnyl+fDM17ttXe4k3lx5uyDBw/irD98uHr2Sy8jBenIhU/gLUR+yfQrQnwDS8IEFhqnsQwbXualp2NZKyzwhD+zmIKhtTm75m6i1CwjucG1glVY2CsSZipltMvF90Uhw304yHsmKCGrG8mTwuLqFHFmM0Rw18LBA8y7icdtvfm7NuPFWe4mMOrgaIGrHDPEKSzbt1eaGmLOhhsWETZt3uzuiMkrHq2trS9Mn0GfSy69bOvWbUGGQ1NT05NPPW2h5r/zbpDRhj0lZE0Bs6eEkAufs2fPYkNYCO8s0uvq6phbsqBZ5r31NtoE/cHtVHEWHkYCtm14MMmOEVmkS+H0k9cqU8LKzR8EAor7uFCaCosLil8QmvbimQWMRAqLB69U1vHME+nWl9iFvAsOikR2RabjF8uMiVWvbCReBRLgTnkx44q7O1JQhBUWl9TgeeQd1DJchYLpCQoL/FEqHJnpJo4wZlidARhXD27/IhgXzWFZ1PYilYqNm1NNmonCQiUlHNlVWBgTq17ZSDqsqsGw7hwWxPemtNCH28VvQSkslZU7cH9y5133rF+/4cpBv/jdTcOPHDkS5LVh/3+KvNVBCu+dXp37WonfbIju4kRdvTfCTDZKJx2+Y2XY8LJ0hJhICyssGCHHWaTCguE3slwBheqAOUhhycIKVmEp37TNjmykZbTLOCOCc6PowN8aWnno1bZgwYKFzC2caSw9TGFxWbp0We8+feGDv/Hbt1e6m8A4hKMFri5ZkrpvjlRYTtXXjx4zluk0b4DhhsWCq8UMuupq3JcEfiFQB1YPFvmvIXv+GYYFrAYZDrhrcb9A5I2v0rHkG6xSAAc0PD4Mg+4RduPRjyvOPpZO8E6EiokpLGDaplSikZ3C4k6EgbM7h4XaRzoKS5y5wVkfzyHZvEk6XUrCyeWeSsmHnt2GFzQGNE9XmKCbe8GxrYcjm8JiPt6VCiCFVU3f3CDuNTMdsx3JDxQUIm2q82aTZIXFnUXiKhSpQXWiwmJb9yLjcJjCQp9IeQWwYp5ZZRIUFtbNK5hscXXoClItEDOPw1UTUnsRL1ukdnnIUGoTDGieixIVFtt6OLIpLOYTWTALs/owiCupYBkOlHUI65w3YcXg5cW9annY3cWcV+bW15++f/QDWF627PMgu42qQ4euu/7fUj5RXz80/WVY2YijR48GqULkkUxfc5vm5JQ0p7pEGuWP9ZsrV67dWLFlB5bTmcNiBmeMqMOGgvBMGIeXiKEpvBTX2PjWYmhwJG6KegLLcu2gmJtlmXWdwpJ15Djr6S+75ReCaO73g8rL1+FvDSxBQLHHhVwJJi5gHuipCktNTc1tI2+nz1NPP9PY2OhuAuOQI0eOWFtTmAgrLLg/mP3Sy0w088YtcTW/duj1lZWpF9zGUVdXZ48uhwUU3Ky8Ovc1ixYpwQDcteDexdzWlpcj0W2fDi3hBqu4weHOaAQYVlg4prVuGQmPRT4b+b3dKYVi2YF/KCweyQqLK4VYYmcpLBYwC7iVXCJ0CjygXk8A6AzuUaYYEXYjbt/zArpZvLa4FxyTSCIrgPSlS5ehOBa8y1QCXgUS4E55keOKw812JD9Qv4gUONJUWPa1KRcmo7gBvSxPYUmpA+c1jsgKwObNfxe5cdIGI5iGQtytJCgscbj170ZSLRD12pSKjZvTV1imTp/pyRbm6WalWqa9woJlqh6RFUD6Z8u+QHEsuKWS4VbiqurCqroKC3fTKgzCmkt+4OUl4W8Tb1EuufQy3sn8bd5buLA8/sST7strV61ajcQrB/3im292BUnt4SyY3n36uh9AFCJvZKqwpCmdwAdk9zkhSiSRw2ZPYUk2EwsYCmWx6o38S9AS5AY2L1qJOhRWN2752nLRhmjJcOOzFMKyIJvde2anixSWLZW7IqvkWcIuh61HKyw2D8XMtBLLGjN2HFPCIIs+pqQkBMwD3aCwUO8guEHBvTvTbSjrJkbexDc3N8+cNZsOV/1yMP/2e5uwVfvbj/jMtdGCzXF1zRtguGHNykbcun//gcAjHnuHHGzGi7NcDcV9ty7n4AQZ7fnk088sAqzvxf3eePOvOGDWPh1awg1WceMOZdMB/tYxONRMv+k4MLYO3KVQ/vimNlZh8QSRyDksXqIUFoMXH+sJRvoKC6UQu8p5Ad1uyWuLXXC4OueVuZGRGZbmXaOS8SqQAHfKCx5XHG62I/khUlBArdJUWOjpahxuwH2JCgtX58x9I64CSIfFySsgXKvUUHzkHVbzUlZYKIWYBuEFTFBYuDrn1dcjIzMsLX15BbCgW/k4WFVXYQEoPuHZyaww99pzyA+8niT8FVu9Zi3uju68655Tp05hFfdRVw76hee/8L3/xgUn4Uw/cOB/hlxzbaYXJSE6i0wVlnTedIvbdfpkobBgwMx5K5GP8HAwn47CYvMpzBll9373ffoCTbFagtxQvmkb2gcN5aXTkhUWV1LBssk0NJTqdIWFxzedR70SdjlsPVphsYkqZiaIWNbvbhrOlDBhhSUhYB7okQqLPR8E63/5wA8/+vjcuXPeJni7gGW7Y0B85tpoYcmSD5nimnujgLDLln1+yaWXuQ73j36gpqYm8EikurravqmMetqONzY2PvX0MxaQc3CY5RJ+gol2+6g/VO7YgWZJYNu27b/69W/gnHCDVdy4Q1l3dOqZHW74s2OwI3m90fqMQTc7pnTLw5jz5g9SdjL+a83vtU1yWX/+uaE0FZYLnKdyIk0Ki3sq4SjjWIfdmI5+hf7DruUFdLslu5DndvhwdTiy24Gty7nYdrMwqw+DeCMlr/4G3KxgfogUFFCrNBUWpt9z39gJE6dw9OsG3BevsJhbODK3jkSYq914pIbZjphC3K2DOIWFG83ObHe6lFQj5KCwMP3Cn/186vSZ1EG8gHEKi7nhlAlHduUVLAep6YH4aRZkHVhz21yy2b50Nby8eCc7jBeQlpaWKX95Hqv2uXd7UMh9JRyuV0hJONPtyuNdN4TID5kqLFu2VvJBIfxGiixIpLwCBy8rTeMkCI6cucyxdKSFB/wce9t4nrqAWwSWzrC8WA2776XQIueeuJassCQ3aVcoLAioOSxhFixYGPlQz8GqKvyhgSU8JYQs+sA5SIoPmAd6nsJSWbnDXl9C692n76zZL+3a9a27ifXrN3B5WNkIfrGY9wowGy2YCnPf/WOoR8DsRoFf5DEpB4blF6bPcG/jkmltbX3r7flWnK/cR+L7iz+wsKjznr17gwLtcYUkz/5432jcDwV+UViD49eGhSWFO5TlANUbmvLW0A43/MPDSMDeGM5iC3sx84arsKSjj9BMv0iYw0KtRHNYvMONA+2eSuw8nhvL2kkKQ+9yA7rL8GcXYg9EQKTjNxzZLlywTPsbe/7d9/4xfCENw03btjq0dGJ2Ip4kQdBK6SgsLGtG9cQN6C4DV2FBQEoVXuR9bToIAybIK4DRDldXW1VZbdsEfSIVlkhYHD5lt43Kj4ySQKoy2SosLOsKEIvaf0vIXYZ/qmXOKywIiHT8hiNPbXswh5apvGJbnPDsZDdmJHR2p6iwMqwhCafkB7sH8IzXEL5gxR4RInxQaMzYcQ0Nwdco5rwyFykJZ7rNYeHb7oTIM5m+6RZm01gu6tVr8ZKP3CybvQKye0QI5iosNCyH51ZETrhAIobTnoXdEDBBSihuQ4N4KbSeqLAgILabXeQ4K9Y33ZrCAosUSpBoDkFSd9PDFJY9e/d68ooZbxe4jE1wdits3EMPnzlzBmXDCktt7fFhZSMeefQx3GRY9TDgaWxsfH/xB4OuupopZpOnPHfu3Lm2iqRLXV3dXXffaxGwrc+/+NJ9NOmtt+eHXyAHUDd7jYvZmAce7HtxP3c6TBzW4Pi1YWFJ0bkKi3VOgy3c4YHoIhLmsFBwcSWSMJETWwBljv8zN5V70azo+JGkqbDQLTtLvzK5wMMd7gk40O6pxM7jubHLLV26jJ0NXQsLq1attoAAC3ZWsgtZDyRuZDowGizch5NhcYRCTPxGbsgN6J0RhHVmfYKkNuAGZxQJ1rseTwQhqJXJFiSssKSG5ddcN2/+u/CEHa6uLmt7JcrK1WvNk8FhDEVNBGPjtgABbmQ4YBlB4MOwXvsY3DpKwQG/WGZlUNwVRzJSWLh1OMAi65lQn04ndQiyVVg4P+WzZV9QClnUNhNk5eo1FhBgAYkMlWqZ9u9hAW5kOjAaLAuFxUrB3PpHwk0XssLCS02Q5OA9gOyaK7ssW/Y5UhLew7J16zb4e0qNEHkj068100xkARf16jVgwMBhw8s4t8Ul4UmiBAsrLOHBP3IxbO5w8gIMnmGFBasI6CWWiCXIDWhhNAta20unFabCgmVUO3yIXctIYSmFrzX3v+JKLAepbbjyipfVjXSDwrJixVe4LyfV1dUPPBg8N2WDWNwn4Yaeie5N/Llz56x9zYb+9gZO9PiXfpfajI+15eX2IeSyEbe+OHP2F18uR3ym2Gjh7Nmzs196uebYMbd6z06cNOKWkVz2zBtmHz9+ourQoQ41F+9r0K49NP5P9s8iD3tTL9rHfWUvboxenfvagoXvMaVDi7vBKno43GXn4eg00mw8Cf/wMBKwN3qHHrDPZDTi7UTiFJZDbd9yHrIwJZEkzDqJVFgof6AUFpA7dnlqNVmpMVjWC5gRBTWHxeskNPdUQr9C73I7DFKwil92NnYMdJsJz0xEOj3tOsNQXI1TWL7euRO51vHcsC5uP3dhcG4IqyjoujEatrJq1WqmxMEGYf2DpG6iov08FNcoi5CwwoIUGOpvUsi+7/aX3TaKMgc9qVlYKPwmKCzIHXz+G0BuWLoR5MIHReCM3yCV4+22l+Z68eFmQVjW3QUXeFo9uXWLz1Xkvv/Bh4erq5nY1aQ2GvNRnmSFBSlYxa8rhUydPpOTRzzFhKG4GqewfL3zG+Sa3uGGdaGs4za+4VYSWDWC7BD0d+sTrmHYJz94VwAX7BHOaFwB4sy+HMQgSIn8HrN9Swi3TLgdClKFyCMNZ856I8w07aHxD4clFYJebVlZiCxhhcUSKbLgN0FeoaflmsISlmlK0xLkBmoo1kRoNPdNt1RSwg3Y7QoLK5CgDWWksOCMCM6NouNgVZUNh2H9r7hyzNhxz0+dZg8HwRLe0pJ/ukFhiTMbS7h//r3BA99s37tP33/pdykdFix87/U33sQf+GXLPrdNLFnyoXsYYAgO47I7WuDbZ93qIeAL02dw2TOrIeEoZdBVV/950uQdX38dpIbwHgsyu3bo9XHPBwE+FN3/8oHLV6xAI7AItoho586dw6jM4iRb5A1WKeCOPHmk8MsswqFshwqL52awz3gx80acwvJeR18aImGFBc6UVwDSKaxwK5aeQJEpLJE9wYW9ItLN62xuQPQi9JkJz0zkWckuFKeweJEj+zBAvw2f43Z98KqBdC4gK9ylI3HrHyR1E1RY4nQHw3SQYP08qL8nhVjA1Bi4bVYLfqlc4DdBYQnW2wiHJfvaVBJG86BE4sVBogVh2fAusJ4o6+0Fq4oFZIWr3dWkWqAjJQKkKh+aw0I8KcQNuOj9JYOHDJ3w7OR0FBYvcoLCwmjBuoOXFbk5FzpgK5lauFadDi8v4YsD2L17z1W/HHzJpZdt3botSDoPHxQyxaS5uXnS5ClIwa3IunXr6WPYtwLipuIK0dU0NTV7I8yMbMaLswYMGEgbNrwMq0xfvOSjrEWWSIUFxoE0RsuwOHkFpZALty2VuywFqyi797vvN20LXn9byjoLdt9Lcc1tZLabm0sJxstlkUiFxY1mFtf4yPJSYJGJME+yYcXiRJa4IJGGMyI4N4qRg1VVrp7iGbLy+SLbDulhCgsf+p05a/bkKc/RAeME3AScPn26vv50RcVGNC7szTf/xlwzBIcPQoFTp055dwNu9RDQPgU98j9+/+lnn1mW1ZBQ7qElD1eOHDkSfuRn/jvvJtyUIOu556c99fQzKItGYBEbL2FzFifZIm+wSgEcLOs8kaNTZMHBDhz8I4eR7BvhkW1cen6IVFjcRAoWccqIq7Bw2Z2rYgqLrXaofaTjk0yxKiyGFZn31tvuWYmFshG32mpc5MiwrK31c0vhue/5MzISw9cEy8rC8naFoYIQ1h080ldYDBb57PMvTWEhWHZXM1JYWFsUCdbPwyDh9A4VFgakeZtjTJhb27yRaoFOVVgMKzLv7Xc84aPsltttNSOFhbWFP0oFSedZ1PaMkucfmWhQALKagNSxK/g5LPzKYeTEE76crnefvqvXBNfi/fsP8NHsvhf3m/3Sy4cPV+NycfDgwRdnzkYK0v943+i6ujo6C5F/Mn3ZbZqWtcgSVliom8CQzu8BYdkb0puPl47xvDfwxuCcnqWps2DHvZQCsciKdUpt0w/S019zmw4Hq6rCj7PACufhIKMbFJahv70BI4qwvfb6G3TGPZANEtzBA6ivP/3xJ582NjZiPEyHsLRh+ohrFEdwHzBp8hSMOpqb24l8bvUYsLx83eLFS7AhN8tTWFyZIzygInGvdIHhJubpCc8eOvRD4Briw48+xu2OO/ixraCJkJ6AviUUVlgirUOFBQ5eJyTsGHHHvauJVFiebHu6Z/35rwghN+4ZH5MzKK+E43gF6Ran1wAUKQ6FJU3QH9ArIjsMO1u4Y6Aj8WS0BaZ7HSkucmRYz9m9Kkb6c1vW59MBkRE/ck8Lk0gdBKD+kVJIagDcJqzYQpDRXvUAkZHjwkY6M7FDHWRfe4WFqyiI6vF1ueHNIWb+Z69kBIWGjBQW0y88ISPVIEOGmn9c5Miwcc5T216OG6mDMCtcPURAHC+UV1XALRaOwnLq1Kk777oHF4cXps8I/4/Hvig05S/Pc4Yv2L//wMj/+D2vLZ7h+nPkyBG6CdEt1J8+440zO8uyEFnWtH05iNMTbMZEeDIFzCQV+GzennrdqSkm1Ggs12Y6uAbntRu2hsMWvaFNvJQCsciKdUpt0w+CcyE4K4oIPgfkCSgHq6pg/E5QeN4K0sNF8k83KCzeTX8Y3K/ght7+focHt8AdSwRJbeD+4E+P/hezLrn0Mps5QnGEAxKs3nDjTZs2/+OGya2eF9DNYhDD6vCrX/9m7759Qep5Ghsbv/hyOTZEnzjre3G/qdNeiNRZzpw5g1scqzOsw6YzrNrhG6wSAUfHOk/kaNMD/nHD2sgRKVs4/SPSuYQVlrBCcajtnSxwg7MLPWFx+ktYYemQ3BUWRkgQcQoKT9pwiexsbkfCr3tWIstdjYvM/uZdghgWiSzlhXWrgfSytpkyCTWPhFfj9P27nYwUFiZSm0iNhB2FhVmuGhIXGT6Dz7+WhbCslwi3dOQVgFKmsHiiTHgvkMXcuOoVCHHSBoiUQphIYcKTLZDlrsZFTjWj81oWwrBuIotHaigGKuCVAozvlorcIuMXjsLCd9O6s1Q8+KDQddf/W9WhQ0FS2/3MihVf3XX3vZy3Muiqq3Fvw2efJ/55Eu67Aj8h8k5zc4s3zuxEy+VxIVlX2PLVG2pqf/QSu91QpTiFJcfaxkWONJwLwVlRLIwZG7yqtX/8R5rDsAise0WWPCkszc3NdXV1uLkHTU1NQWoM7iQUGyR7mLrhjn5RkP9+oU2aPMXeCMuRCb9QiFXcGWzesoWlAO9F6JmgsIweM/ZUfTDuPHXq1B/vG83039003P03zrHa2tffeNM+/+zaI48+9uFHH1tAM9QHwcvL14XvPrH7aAS62XipQ6za4RusEgFHPK7zhEGzYwzpDV/RE9CAXn8w2MLpH5HOxVNYKJp4U1EA5564Iot5MkKmogZ1kOzM01+sAmbh+hcsJm0E6w6etAGYYh3Jc0C621F5vkcqGuyQnsVpH7aVyIC8fkbW34OnRtxWCg1UMixtEGa52gRTbOqH55AaGI+8Y5HzOE+chEFPZHlmnubgRksABSN3AbiVDNcnNcK/JvWtosiy3UtY2jCY5UoVTDFVwnNAepnzmE+qeWO0GyojnrmeqI+XEkeqbdteucJapQ5E+wksdAiHYvXyr7B0Na2trZ98+hnfwzLqjju///77IEOIvJPdF4XSNBNZ8OtlyfJvy1dvOFB12EvsdkOV4hSWHGsbFzlsxfcVoay/EARnKxie4ZI38qSwJHDq1KkJz0ycPmPmzFmzYbjpd+d9xA2SOUKAcdzS3Ny8cuUqV7m4fdQfao4dszHJc89Pww0B/3uDVe//MwkKC7/ozCzYXXffi0qitu6kWX4QurGxcdWq1ff+5338x45ng666+qOPP+GHh2pqasY++JDnQOt7cb/7Rz+wYsVX9okiDpCYy1FZ5EArzqSwBOtRcBRK85xRPLnpCkdhoeoRJ094r1mBm+vJXFfmSLAepIB0Ohg1Pey83wTWobSBZSvl9RO7fNHca06kIJIF1rcTzgJeSZJPE+5C7vXpOiqcF5TQwiIIQP1dAYWlbJVQobA4Jr6QrCeJTE3jER5vL+KmunAv6BOn16SG9JkIOl1EqqrtvzEUJ2S4AoqVMj2FUAoxcwWLBIUlAZYa3P6Jng5hVVFq+Ver3HfBsNqR+hE3VHwKC8A9Fa4zvHfCHQ7uW8KPHQmRB7p0GguMIsuw4WVeuiz/tqp80+btu47UHPfSu9FQGVQJFfPSYTnWNiFy2IpvAospLGPGjguS2sMHhYKV9pjIEueQB7pfYWlpafnzpMlsiLDdP/qByAmorsKyafNmDBKsCOy2kbdTQHHFiCHXXMsJrjAvbILC0tjY+PgTTzIrzua8Mheezc3NkR8hwkaRXlt7nAHJuXPnVq1eE/kMkfeNIY64mMVxmrtTHVrJKizFjSksnJOS/HgOnf/JeUWL6DoobeCXC7hSBRn5BdstZFkk/6TGwG0KC0a8+C3MiR4dQg0oC5WnkDGFhQuROoUQQiRQ39BVb2ORFZRt3bFrw5YdK9dt3v71np3f7ut2QzVQGVQJFfOqCsultsmRPUP/D86EIoICSpxEYvpL3CwVOJTEU0LJLFv2OZvJs959+i5duixwao+rsNQcO3b7qD9YqftHP1BTU0O31WvWRs4omf/Ou3QgCQoLwEiJU2EjjZNl6OnVpO/F/Z6dOCnhXbbhd7WEd1kKixBCCCGEEHH8eLLeG3bKis9+qD62uk13WLdx+/K2lwF3r6EaqAyqhIp5VYXlUtvkyK6h5wfnQClhs1S6V0ZJoCAUFn4g0EQBWN+L+911973r1q2Pm3TqKixY3bN377VDr0epN978a2NjI31Ac3Pz3+a95eoj8Jk0ecqPP7absJ2ssIBdu759cNx4N07vPn1H3DJy/jvvNjS0e/INdYYb7OU5rxyrrQ1SE0ElKzZuGj1mLGLOnDUbq0FGG2GF5e8dfUgI6FtCQgghhBCiFGhpaemiLzfLCsp+qD62dUfq2RlPkugWQzVQmQQRJOvadhiZhj5v330rKaSwpEXz+ffg4tfeP5LMF18u53tb7IW1+/cfOHr0KJczxSoAcpxXj1B79u7NLkhDG8HKeRobG7GP5eXrYMePJ71VxKW+/nRFxUYUwa/e8y+EEEIIIYqYpqZmiSyy0jH0dvT5oPeXGFJYhBBCCCGEEKJrkcgiKxErZXkFlJevo8IS9x6WbkcKixBCCCGEEKLH09LSoneyyIrb0MNL8+Egl4T34BYCUliEEEIIIYQQRYK+LiQrVivKLwcVH1JYhBBCCCGEEMVDc3PLyfoGb3Qqk/VcQ39Grw76tyhspLAIIYQQQgghig2MSOtPn9HLWWQ919B70YelrfQspLAIIYQQQgghipampuaGM2dP1jecqKvHkFWai6wwjZ0TvRR9FT22lF9n26ORwiKEEEIIIYQQQgiRK1JYhBBCCCGEEEIIIXJFCosQQgghhBBCCCFErkhhEUIIIYQQQgghhMgVKSxCCCGEEEIIIYQQuSKFRQghhBBCCCGEECJXpLAIIYQQQgghhBBC5IoUFiGEEEIIIYQQQohckcIihBBCCCGEEEIIkStSWIQQQgghhBBCCCFyRQqLEEIIIYQQQgghRK5IYRFCCCGEEEIIIYTIFSksQgghhBBCCCGEELkihUUIIYQQQgghhBAiV6SwCCGEEEIIIYQQQuSKFBYhhBBCCCGEEEKIXAkUluPHj9cKIYSIZ+fOnV9++eWHbWABq0is2LyNuUIIIYQQQojS5Pjx4z/++GN9fX1KXzl58v8D78u9IGzWMTQAAAAASUVORK5CYII=;" vertex="1" parent="1">
          <mxGeometry x="50" y="260" width="1483" height="79" as="geometry" />
        </mxCell>
        <mxCell id="qH5N2jIMNF-lpWaPt8uT-2" value="" style="rounded=0;whiteSpace=wrap;html=1;strokeWidth=3;dashed=1;strokeColor=#1890FF;fillColor=none;" vertex="1" parent="1">
          <mxGeometry x="50" y="260" width="1480" height="79" as="geometry" />
        </mxCell>
        <mxCell id="qH5N2jIMNF-lpWaPt8uT-3" value="" style="rounded=0;whiteSpace=wrap;html=1;strokeColor=none;fillColor=#dae8fc;opacity=20;" vertex="1" parent="1">
          <mxGeometry x="50" y="260" width="220" height="80" as="geometry" />
        </mxCell>
        <mxCell id="qH5N2jIMNF-lpWaPt8uT-4" value="" style="rounded=0;whiteSpace=wrap;html=1;strokeColor=#d79b00;fillColor=#ffe6cc;opacity=20;" vertex="1" parent="1">
          <mxGeometry x="270" y="260" width="820" height="80" as="geometry" />
        </mxCell>
        <mxCell id="qH5N2jIMNF-lpWaPt8uT-5" value="" style="rounded=0;whiteSpace=wrap;html=1;strokeColor=#82b366;fillColor=#d5e8d4;opacity=20;" vertex="1" parent="1">
          <mxGeometry x="1090" y="260" width="440" height="80" as="geometry" />
        </mxCell>
        <mxCell id="qH5N2jIMNF-lpWaPt8uT-6" value="1" style="ellipse;whiteSpace=wrap;html=1;aspect=fixed;strokeColor=none;fillColor=#FF3333;fontSize=14;fontColor=#FFFFFF;" vertex="1" parent="1">
          <mxGeometry x="220" y="280" width="40" height="40" as="geometry" />
        </mxCell>
        <mxCell id="qH5N2jIMNF-lpWaPt8uT-7" value="2" style="ellipse;whiteSpace=wrap;html=1;aspect=fixed;strokeColor=none;fillColor=#FF3333;fontSize=14;fontColor=#FFFFFF;" vertex="1" parent="1">
          <mxGeometry x="960" y="280" width="40" height="40" as="geometry" />
        </mxCell>
        <mxCell id="qH5N2jIMNF-lpWaPt8uT-8" value="3" style="ellipse;whiteSpace=wrap;html=1;aspect=fixed;strokeColor=none;fillColor=#FF3333;fontSize=14;fontColor=#FFFFFF;" vertex="1" parent="1">
          <mxGeometry x="1410" y="279.5" width="40" height="40" as="geometry" />
        </mxCell>
      </root>
    </mxGraphModel>
  </diagram>
</mxfile>
